<?xml version="1.0" encoding="iso-8859-1"?>
<!-- Generator: Adobe Illustrator 19.0.0, SVG Export Plug-In . SVG Version: 6.00 Build 0)  -->
<svg xmlns="http://www.w3.org/2000/svg" xmlns:xlink="http://www.w3.org/1999/xlink" version="1.1" id="Layer_1" x="0px" y="0px" viewBox="0 0 511.808 511.808" style="enable-background:new 0 0 511.808 511.808;" xml:space="preserve" width="512px" height="512px">
<g>
	<g>
		<path d="M477.511,491.424l-26.48-348.832c-0.624-8.336-7.584-14.784-15.952-14.784H76.391c-8.368,0-15.328,6.448-15.952,14.8    l-26.704,352c-0.336,4.432,1.2,8.816,4.224,12.08c3.024,3.264,7.28,5.12,11.728,5.12h412.112c0.096,0,0.208,0,0.32,0    c8.832,0,16-7.168,16-16.016C478.119,494.288,477.911,492.816,477.511,491.424z M66.935,479.808l24.288-320h329.024l24.288,320    H66.935z" fill="#3d3d3d"/>
	</g>
</g>
<g>
	<g>
		<path d="M255.735,0c-70.576,0-128,57.44-128,128.032v63.776c0,8.832,7.168,16,16,16c8.832,0,16-7.168,16-16v-63.776    c0-52.96,43.056-96.032,96-96.032c52.944,0,96,43.072,96,96.032v63.776c0,8.832,7.168,16,16,16c8.832,0,16-7.168,16-16v-63.776    C383.735,57.44,326.311,0,255.735,0z" fill="#3d3d3d"/>
	</g>
</g>
<g>
</g>
<g>
</g>
<g>
</g>
<g>
</g>
<g>
</g>
<g>
</g>
<g>
</g>
<g>
</g>
<g>
</g>
<g>
</g>
<g>
</g>
<g>
</g>
<g>
</g>
<g>
</g>
<g>
</g>
</svg>
